<svg width="0" height="0" class="hidden">
  <symbol version="1.1" xmlns="http://www.w3.org/2000/svg" viewBox="0 0 32 32" id="lamp">
    <title>lamp</title>
    <path d="M17.747 14.017c-1.25 0.562-4.022-0.815-4.022-0.815-3.248-1.947 1.22 6.073 1.22 6.073s0.093 2.503 0.655 2.815c4.687-6.563 3.397-8.636 2.147-8.073zM16.060 20.24c-0.379 0-1.972-4.779-1.784-5.779 1.251 0.125 2.409 0.597 3.097 0.222 1.937-0.878-0.876 5.557-1.313 5.557zM19.952 23.947c0.115-7.305 4.046-10.116 4.046-14.466 0-3.712-2.54-8.45-7.87-8.45-5.329 0-8.126 4.533-8.126 8.484 0 4.436 3.993 7.224 3.993 14.478h4.043c0 0 3.798-0.046 3.914-0.046zM12.809 23.020c0-6.771-3.868-9.373-3.868-13.513 0-3.688 2.51-7.556 7.173-7.556s6.948 4.060 6.948 7.524c0 4.060-3.814 6.742-3.916 13.56-0.102 0-3.111-0.016-3.111-0.016h-3.226zM19.505 25.014h-7c-0.276 0-0.5 0.224-0.5 0.5s0.224 0.5 0.5 0.5h7c0.275 0 0.5-0.224 0.5-0.5s-0.225-0.5-0.5-0.5zM19.505 27.014h-7c-0.276 0-0.5 0.224-0.5 0.5s0.224 0.5 0.5 0.5h7c0.275 0 0.5-0.224 0.5-0.5s-0.225-0.5-0.5-0.5zM12.997 29.043c0 0 0 0.334 0 0.9s0.444 1.025 0.992 1.025h4.031c0.549 0 0.992-0.459 0.992-1.025s-0.062-0.9-0.062-0.9h-5.953z"></path>
  </symbol>
  <symbol version="1.1" xmlns="http://www.w3.org/2000/svg" viewBox="0 0 32 32" id="notice">
    <title>notice</title>
    <path d="M15.5 3c-7.456 0-13.5 6.044-13.5 13.5s6.044 13.5 13.5 13.5 13.5-6.044 13.5-13.5-6.044-13.5-13.5-13.5zM15.5 27c-5.799 0-10.5-4.701-10.5-10.5s4.701-10.5 10.5-10.5 10.5 4.701 10.5 10.5-4.701 10.5-10.5 10.5zM15.5 10c-0.828 0-1.5 0.671-1.5 1.5v5.062c0 0.828 0.672 1.5 1.5 1.5s1.5-0.672 1.5-1.5v-5.062c0-0.829-0.672-1.5-1.5-1.5zM15.5 20c-0.828 0-1.5 0.672-1.5 1.5s0.672 1.5 1.5 1.5 1.5-0.672 1.5-1.5-0.672-1.5-1.5-1.5z"></path>
  </symbol>
  <symbol version="1.1" xmlns="http://www.w3.org/2000/svg" viewBox="0 0 32 32" id="clipboard">
    <title>clipboard</title>
    <path d="M24 32.041h-18c-1.105 0-2-0.893-2-1.996v-24.097c0-1.102 0.895-1.995 2-1.995h5v2.079h-4c-0.552 0-1 0.446-1 0.998v22.017c0 0.553 0.448 0.998 1 0.998h16c0.553 0 1-0.445 1-0.998v-22.017c0-0.552-0.447-0.998-1-0.998h-4v-2.079h5c1.104 0 2 0.894 2 1.995v24.097c0 1.103-0.896 1.996-2 1.996zM11 12.019h11v0.998h-11v-0.998zM11 15.013h11v0.998h-11v-0.998zM11 18.008h11v0.998h-11v-0.998zM11 21.002h11v0.998h-11v-0.998zM22 27.986h-11v-0.996h11v0.996zM11 23.996h11v0.998h-11v-0.998zM8 11.999h1v0.998h-1v-0.998zM8 14.993h1v0.998h-1v-0.998zM8 17.986h1v0.998h-1v-0.998zM8 20.98h1v0.998h-1v-0.998zM9 27.967h-1v-0.998h1v0.998zM8 23.975h1v0.998h-1v-0.998zM21 7.091c0.553 0 1 0.447 1 0.999s0 1.933 0 1.933h-14c0 0 0-1.382 0-1.933s0.447-0.999 1-0.999h3c0 0 0.012-1.419 0.012-3.041 0-1.684 1.3-3.092 2.988-3.092s3.033 1.48 3.033 3.102c0 1.747-0.033 3.031-0.033 3.031h3zM15 3.953c-0.553 0-1 0.446-1 0.997 0 0.552 0.447 0.998 1 0.998s1-0.446 1-0.998c0-0.551-0.447-0.997-1-0.997z"></path>
  </symbol>
</svg>